# xmcd
#
# Track frame offsets:
#	150
#	12777
#	32869
#	53054
#	68503
#	93627
#	118249
#	129688
#	148906
#	172410
#	188610
#	210294
#	232996
#	251396
#	272975
#	292175
#	299924
#
# Disc length: 4297 seconds
#
# Revision: 0
# Processed by: cddbd v1.5.1PL0 Copyright (c) Steve Scherf et al.
# Submitted via: dBpowerAMP V4.0
#
DISCID=1010c711
DTITLE=Mary J Blige - No More Drama
DYEAR=2003
DGENRE=R&B
TTITLE0=Love
TTITLE1=Family Affairs
TTITLE2=Steal Away
TTITLE3=Crazy Games
TTITLE4=PMS
TTITLE5=No More Drama
TTITLE6=Keep It Moving
TTITLE7=Destiny
TTITLE8=Where I've Been (feat Eve)
TTITLE9=Beautiful Day
TTITLE10=Dance For Me
TTITLE11=Flying Away
TTITLE12=Never Been
TTITLE13=2 U
TTITLE14=In The Meantime
TTITLE15=Forever No More - poem
TTITLE16=Testimony
EXTD=Baddy Productions
EXTT0=
EXTT1=
EXTT2=
EXTT3=
EXTT4=
EXTT5=
EXTT6=
EXTT7=
EXTT8=
EXTT9=
EXTT10=
EXTT11=
EXTT12=
EXTT13=
EXTT14=
EXTT15=
EXTT16=
PLAYORDER=
